<?xml version="1.0" standalone="no"?>
<!DOCTYPE svg PUBLIC "-//W3C//DTD SVG 1.1//EN" "http://www.w3.org/Graphics/SVG/1.1/DTD/svg11.dtd" >
<!--
2013-9-30: Created.
-->
<svg>
<metadata>
Created by iconfont
</metadata>
<defs>

<font id="iconfont" horiz-adv-x="1024" >
  <font-face
    font-family="iconfont"
    font-weight="500"
    font-stretch="normal"
    units-per-em="1024"
    ascent="896"
    descent="-128"
  />
    <missing-glyph />
    
    <glyph glyph-name="shuaxin" unicode="&#58892;" d="M511.582491 748.586738C265.134543 748.586738 64.62588 548.078075 64.62588 301.630127s200.508663-446.957635 446.957635-446.957635 446.957635 200.508663 446.957635 446.957635S758.031463 748.586738 511.582491 748.586738zM509.001713 60.140097c-98.517781 0-182.467775 62.623269-214.771505 150.056598l0.327458 0.134053c-2.007727 4.036943-3.38305 8.422833-3.38305 13.237489 0 16.647145 13.494339 30.142507 30.142507 30.142507 13.389962 0 24.358781-8.877181 28.2893-20.955264l0.422625 0.172939c23.269983-65.442478 85.645612-112.503307 158.972665-112.503307 93.106538 0 168.845523 75.738985 168.845523 168.845523s-75.738985 168.845523-168.845523 168.845523c-20.432355 0-39.874149-3.980661-58.013275-10.66899l21.248953-40.742936c2.486634-2.677992 4.0175-6.2831 4.0175-10.243295 0-8.417717-8.404414-14.921851-15.365966-15.07023-0.102331 0-0.206708 0-0.309038 0-0.220011 0-0.427742 0-0.647753 0.013303l-150.579507 6.463202c-5.372358 0.234337-10.229992 3.310396-12.716626 8.093329-2.486634 4.76963-2.236947 10.509355 0.647753 15.055904l80.890308 127.179564c2.8847 4.533246 8.006348 7.151887 13.365402 6.960529 5.372358-0.234337 10.227945-3.312442 12.71458-8.095375l18.580171-35.625382c26.629497 10.855232 55.683207 16.963347 86.168522 16.963347 126.338407 0 229.130537-102.791108 229.130537-229.130537S635.340119 60.140097 509.001713 60.140097z"  horiz-adv-x="1024" />

    
    <glyph glyph-name="yinle" unicode="&#58972;" d="M896 0 725.333333 0C701.76 0 682.666667 19.093333 682.666667 42.666667L682.666667 320C682.666667 343.573333 701.76 362.666667 725.333333 362.666667L853.333333 362.666667 853.333333 384C853.333333 572.522667 700.522667 725.333333 512 725.333333 323.477333 725.333333 170.666667 572.522667 170.666667 384L170.666667 362.666667 298.666667 362.666667C322.24 362.666667 341.333333 343.573333 341.333333 320L341.333333 42.666667C341.333333 19.093333 322.24 0 298.666667 0L128 0C104.426667 0 85.333333 19.093333 85.333333 42.666667L85.333333 384C85.333333 619.648 276.352 810.666667 512 810.666667 747.648 810.666667 938.666667 619.648 938.666667 384L938.666667 42.666667C938.666667 19.093333 919.573333 0 896 0ZM170.666667 85.333333 256 85.333333 256 277.333333 170.666667 277.333333 170.666667 85.333333ZM853.333333 277.333333 768 277.333333 768 85.333333 853.333333 85.333333 853.333333 277.333333Z"  horiz-adv-x="1024" />

    
    <glyph glyph-name="shenglvehao1" unicode="&#59044;" d="M500.092807 476.444459c-52.607148 0-95.252411-41.259706-95.252411-92.155886 0-50.897204 42.645263-92.155886 95.252411-92.155886 52.605102 0 95.250364 41.259706 95.250364 92.155886C595.344195 435.184753 552.697909 476.444459 500.092807 476.444459zM928.726098 476.444459c-52.607148 0-95.250364-41.259706-95.250364-92.155886 0-50.897204 42.643216-92.155886 95.250364-92.155886s95.252411 41.259706 95.252411 92.155886C1023.978509 435.184753 981.332223 476.444459 928.726098 476.444459zM95.271852 476.444459c-52.605102 0-95.250364-41.259706-95.250364-92.155886 0-50.897204 42.645263-92.155886 95.250364-92.155886 52.607148 0 95.252411 41.259706 95.252411 92.155886C190.524263 435.184753 147.879 476.444459 95.271852 476.444459z"  horiz-adv-x="1024" />

    
    <glyph glyph-name="fanhui" unicode="&#58968;" d="M779.712418-71.111111L337.986928 370.614379c-6.69281 6.69281-6.69281 20.078431 0 30.117647L779.712418 839.111111c13.385621 13.385621 13.385621 33.464052 0 46.849673s-33.464052 13.385621-46.849673 0L261.019608 414.117647c-16.732026-16.732026-20.078431-40.156863 3.346405-63.581699l468.496732-468.496732c13.385621-13.385621 33.464052-13.385621 46.849673 0 13.385621 13.385621 13.385621 33.464052 0 46.849673z"  horiz-adv-x="1024" />

    
    <glyph glyph-name="guanzhu" unicode="&#59089;" d="M512-81.92L97.28 334.506667C37.546667 392.533333 5.12 471.04 5.12 554.666667s32.426667 162.133333 92.16 220.16c47.786667 47.786667 110.933333 73.386667 180.906667 73.386666 80.213333 0 165.546667-34.133333 233.813333-92.16 68.266667 58.026667 153.6 92.16 233.813333 92.16 69.973333 0 133.12-25.6 182.613334-73.386666 121.173333-121.173333 121.173333-319.146667 0-440.32L512-81.92z"  horiz-adv-x="1024" />

    
    <glyph glyph-name="hot" unicode="&#59190;" d="M897.72 675.357l-771.105 0.51c-68.695 0.047-124.42-55.623-124.467-124.32L2 302.753c-0.047-68.703 55.581-124.438 124.281-124.491l67.032-0.215 25.11-85.914 149.468 84.542 529.492 1.083c68.698-0.048 124.423 55.609 124.471 124.322L1022 550.869c0.048 68.706-55.608 124.444-124.28 124.488zM370.769 302.375c-0.999-1.493-2.557-2.618-4.628-3.344-1.469-0.51-3.304-0.936-5.614-1.282-2.231-0.336-4.941-0.51-8.061-0.51-3.427 0-6.155 0.168-8.358 0.51-2.255 0.347-4.053 0.768-5.514 1.288-2.066 0.72-3.629 1.851-4.618 3.338-0.938 1.408-1.419 3.038-1.419 4.825V408.771h-100.248V307.2c0-1.787-0.476-3.417-1.419-4.825-0.996-1.498-2.555-2.623-4.625-3.349-1.467-0.51-3.299-0.936-5.611-1.288-2.231-0.331-5.004-0.504-8.248-0.504-3.12 0-5.854 0.168-8.143 0.504-2.387 0.348-4.26 0.773-5.735 1.293-2.076 0.721-3.63 1.851-4.623 3.333-0.938 1.414-1.417 3.044-1.417 4.836V535.788c0 1.8 0.479 3.427 1.425 4.841 0.983 1.472 2.534 2.597 4.615 3.33 1.493 0.518 3.361 0.936 5.724 1.29 2.287 0.334 5.028 0.505 8.148 0.505 3.243 0 6.019-0.168 8.242-0.505 2.302-0.349 4.137-0.77 5.614-1.29 2.084-0.736 3.637-1.856 4.625-3.33 0.952-1.425 1.425-3.049 1.425-4.841v-91.259h100.245v91.259c0 1.792 0.481 3.427 1.425 4.841 0.98 1.472 2.533 2.597 4.612 3.33 1.48 0.515 3.28 0.933 5.509 1.285 2.203 0.344 4.936 0.51 8.363 0.51 3.117 0 5.835-0.168 8.059-0.505 2.302-0.349 4.137-0.77 5.614-1.29 2.087-0.736 3.638-1.856 4.626-3.33 0.943-1.425 1.419-3.049 1.419-4.841V307.2l0.005 0.011c0-1.798-0.478-3.417-1.414-4.836z m257.273 68.65h-0.006c-4.684-15.922-11.785-29.699-21.12-40.928-9.389-11.322-21.331-20.122-35.487-26.178-14.072-6.023-30.651-9.072-49.27-9.072-18.359 0-34.516 2.796-48.017 8.305-13.627 5.572-25.063 13.794-33.976 24.443-8.863 10.576-15.541 23.854-19.849 39.445C416.065 382.409 413.91 400.297 413.91 420.208c0 19.076 2.35 36.678 6.979 52.324C425.57 488.338 432.713 501.997 442.118 513.118c9.451 11.173 21.415 19.904 35.558 25.959 14.069 6.024 30.648 9.075 49.272 9.075 17.988 0 33.926-2.765 47.367-8.213 13.557-5.503 25.011-13.651 34.052-24.228 8.989-10.523 15.77-23.673 20.144-39.08 4.321-15.2 6.508-32.819 6.508-52.369-0.001-19.56-2.346-37.467-6.977-53.237zM833.926 520.32l-0.011-0.002c-0.315-2.221-0.846-4.008-1.629-5.478-0.895-1.687-2.071-2.991-3.491-3.861-1.445-0.894-3.064-1.343-4.804-1.343h-62.916v-202.425c0-1.793-0.479-3.417-1.414-4.831-0.999-1.498-2.555-2.623-4.626-3.349-1.472-0.504-3.307-0.936-5.619-1.282-2.224-0.336-4.999-0.505-8.248-0.505-3.111 0-5.851 0.169-8.137 0.505-2.387 0.347-4.269 0.768-5.74 1.293-2.065 0.715-3.627 1.835-4.615 3.333-0.936 1.408-1.419 3.038-1.419 4.831V509.631h-62.916c-1.74 0-3.364 0.449-4.81 1.346-1.472 0.899-2.655 2.26-3.485 4.037-0.652 1.375-1.151 3.064-1.52 5.162-0.347 1.935-0.521 4.221-0.521 6.789 0 2.56 0.174 4.862 0.521 6.86 0.363 2.131 0.852 3.861 1.488 5.293 0.825 1.855 2.008 3.272 3.521 4.205 1.445 0.891 3.064 1.343 4.81 1.343h165.646c1.734 0 3.354-0.447 4.794-1.341 1.461-0.899 2.649-2.263 3.543-4.047 0.762-1.511 1.271-3.346 1.587-5.583 0.273-1.966 0.41-4.231 0.41-6.733 0.005-2.505-0.131-4.744-0.399-6.642zM578.488 487.645c-5.162 7.888-12.153 14.132-20.784 18.574-8.689 4.46-19.681 6.731-32.691 6.731-12.96 0-23.928-2.431-32.585-7.22-8.695-4.812-15.865-11.317-21.298-19.331-5.506-8.119-9.501-17.765-11.898-28.677-2.434-11.123-3.672-22.998-3.672-35.29 0-13.672 1.146-26.409 3.417-37.86 2.221-11.223 5.984-20.99 11.188-29.038 5.102-7.879 12.022-14.093 20.582-18.461 8.631-4.405 19.726-6.639 32.983-6.639 13.084 0 24.186 2.434 32.97 7.228 8.799 4.805 15.979 11.381 21.341 19.539h-0.016c5.456 8.311 9.409 18.093 11.738 29.074 2.376 11.212 3.585 23.25 3.585 35.773 0 13.16-1.178 25.539-3.496 36.82-2.275 11.031-6.097 20.714-11.364 28.777z"  horiz-adv-x="1024" />

    
    <glyph glyph-name="jingpin" unicode="&#58969;" d="M931.648 389.583l-97.23 248.467c-5.35 13.908-18.479 22.895-33.447 22.895h-577.976c-14.87 0-27.992-8.943-33.433-22.789l-94.755-242.070c-0.194-0.284-0.424-0.65-0.641-1.086l-0.224-0.45-0.159-0.476c-0.226-0.677-0.361-1.271-0.459-1.705-0.023-0.103-0.044-0.208-0.071-0.313l-0.931-2.46c-5.181-13.159-0.871-28.032 10.471-36.493l372.525-423.696c9.003-10.095 22.047-16.421 36.568-16.423 13.911 0 27.197 6.017 36.451 16.515l371.791 422.875c12.066 8.175 16.908 23.654 11.519 37.209zM854.305 415.683h-186.499l52.205 182.717h62.865l71.429-182.717zM837.479 353.136l-277.593-315.676 90.091 315.676h187.502zM373.725 353.071l90.094-315.684-277.659 315.684h187.565zM369.516 595.619h284.603l-51.351-179.936h-181.904l-51.349 179.936zM355.832 415.683h-186.162l71.551 182.717h62.468l52.144-182.717zM584.943 353.071l-73.125-256.199-73.123 256.199h146.248zM345.333 692.895c5.91-5.91 13.785-9.164 22.172-9.164 8.346 0 16.197 3.254 22.126 9.184 12.071 12.156 12.079 31.997-0.022 44.267l-76.256 76.123c-5.922 5.922-13.774 9.184-22.108 9.184-8.336 0-16.186-3.261-22.108-9.184-12.208-12.207-12.208-32.071 0.003-44.283l76.192-76.126zM512.48 683.729c17.244 0 31.273 14.030 31.273 31.273v107.77c0 17.208-14.030 31.207-31.273 31.207s-31.273-14-31.273-31.207v-107.771c0-17.243 14.030-31.272 31.273-31.272zM656.196 683.729c8.427 0 16.291 3.267 22.105 9.163l76.197 76.13c12.207 12.209 12.207 32.074 0 44.28-5.922 5.923-13.784 9.184-22.141 9.184-8.356 0-16.219-3.261-22.14-9.184l-76.229-76.229c-12.064-12.232-12.055-32.072 0.070-44.28 5.925-5.845 13.788-9.065 22.138-9.065z"  horiz-adv-x="1024" />

    
    <glyph glyph-name="zhankai" unicode="&#58891;" d="M534.69 52.007l335.097 341.136c14.11 14.425 14.11 37.754 0 52.185a35.872 35.872 0 0 1-51.362 0L506.71 127.877 194.877 445.332c-14.172 14.43-37.077 14.43-51.246 0-14.172-14.435-14.172-37.764 0-52.189L478.61 52.002c7.735-7.94 18.002-11.122 28.102-10.465 10.03-0.662 20.247 2.524 27.977 10.465l0.002 0.005z m-27.978 256.846c10.035-0.73 20.247 2.52 27.978 10.338l335.097 341.145c14.106 14.426 14.106 37.754 0 52.308-14.166 14.424-37.195 14.303-51.366 0l-311.709-317.58-311.834 317.58c-14.171 14.303-37.077 14.424-51.246 0-14.172-14.554-14.172-37.882 0-52.308L478.61 319.191c7.73-7.818 18-11.063 28.103-10.338z"  horiz-adv-x="1024" />

    
    <glyph glyph-name="jiantou" unicode="&#58985;" d="M959.488 386.56a29.376 29.376 0 0 1-8.256 23.68l-168.96 168.96a29.888 29.888 0 1 1-42.24-42.24l123.136-123.072H93.888a29.888 29.888 0 1 1 0-59.776h769.28l-123.136-123.072a29.888 29.888 0 0 1 42.24-42.24l168.96 168.96a29.376 29.376 0 0 1 8.32 23.68c0 0.896 0.448 1.664 0.448 2.56 0 0.896-0.448 1.664-0.512 2.56z"  horiz-adv-x="1024" />

    
    <glyph glyph-name="tiaozhuan" unicode="&#58976;" d="M334.016-52.928l409.792 409.792a37.76 37.76 0 0 1 10.944 27.392 37.76 37.76 0 0 1-10.944 27.328L334.464 820.928a38.08 38.08 0 0 1-53.696 0 38.08 38.08 0 0 1 0-53.696l383.04-382.976-383.488-383.488a38.08 38.08 0 0 1 0-53.696c14.72-14.72 38.912-14.72 53.696 0z"  horiz-adv-x="1024" />

    
    <glyph glyph-name="zanting" unicode="&#58978;" d="M512 832a448 448 0 1 1 0-896A448 448 0 0 1 512 832z m-25.856-568.64a34.56 34.56 0 0 0-34.432-34.432 34.56 34.56 0 0 0-34.496 34.432v241.28a34.56 34.56 0 0 0 34.496 34.432 34.56 34.56 0 0 0 34.432-34.432v-241.28z m120.64 0a34.56 34.56 0 0 0-34.496-34.432 34.56 34.56 0 0 0-34.432 34.432v241.28a34.56 34.56 0 0 0 34.432 34.432 34.56 34.56 0 0 0 34.496-34.432v-241.28z"  horiz-adv-x="1024" />

    
    <glyph glyph-name="xuanzhong" unicode="&#58979;" d="M512 832a448 448 0 1 1 0-896A448 448 0 0 1 512 832z m171.072-360.768l-201.6-201.6a18.944 18.944 0 0 0-14.08-5.44 18.944 18.944 0 0 0-14.08 5.44L340.928 382.08a19.2 19.2 0 0 0 0 27.008 19.2 19.2 0 0 0 27.008 0l99.456-99.456 188.672 188.672a19.2 19.2 0 0 0 27.008 0 19.2 19.2 0 0 0 0-27.008z"  horiz-adv-x="1024" />

    
    <glyph glyph-name="meixuanze" unicode="&#58981;" d="M512 832a448 448 0 1 1 0-896A448 448 0 0 1 512 832z m14.4-585.152a24.832 24.832 0 0 0-33.92 0 23.04 23.04 0 0 0-6.784 17.024 23.04 23.04 0 0 0 23.68 23.296c7.168 0 12.992-2.24 17.472-6.72 4.48-4.48 6.72-10.048 6.72-16.64a22.4 22.4 0 0 0-7.168-16.96z m56.96 158.08c-4.48-5.248-15.168-15.36-32-30.4a76.992 76.992 0 0 1-18.56-21.76 55.488 55.488 0 0 1-7.552-28.8v-9.152h-31.616v9.088c0 13.184 2.368 24.64 7.104 34.432 5.504 11.84 18.816 27.136 39.936 45.824 7.36 7.36 11.84 12.16 13.44 14.272a49.792 49.792 0 0 1 11.84 31.168c0 15.552-4.48 27.84-13.44 36.8-8.96 9.216-21.888 13.824-38.72 13.824-19.776 0-34.432-6.464-43.904-19.392-8.704-11.072-13.056-26.24-13.056-45.44H425.6c0 27.904 7.808 50.112 23.36 66.432 15.808 17.344 37.952 26.048 66.432 26.048 25.536 0 45.824-6.976 60.8-20.928 14.784-13.44 22.208-32 22.208-55.744 0-17.664-5.056-33.088-15.04-46.272z"  horiz-adv-x="1024" />

    
    <glyph glyph-name="bofang" unicode="&#58983;" d="M512 832a448 448 0 1 1 0-896A448 448 0 0 1 512 832z m158.336-448.192a16.384 16.384 0 0 0-5.44-6.4L560.96 308.736l-103.936-68.864c-7.04-4.8-16.256-1.92-20.48 6.336a18.56 18.56 0 0 0-1.92 8.576h-0.192V530.176c0 9.536 6.848 17.088 15.168 17.088 3.008 0 5.824-0.96 8.32-2.944l103.04-68.16 103.936-68.928c7.232-4.608 9.6-15.36 5.44-23.424z"  horiz-adv-x="1024" />

    
    <glyph glyph-name="daijinquan" unicode="&#58986;" d="M924.224 519.232A51.648 51.648 0 0 1 960 568.96V684.48c0 28.48-20.992 51.52-46.848 51.52H704v-35.2c0-19.328-14.4-35.2-32-35.2s-32 15.872-32 35.2V736H110.848c-25.856 0-46.848-23.04-46.848-51.52V568.96c0-23.68 15.04-43.136 35.776-49.728C152.96 502.208 192 448.128 192 384s-38.976-118.208-92.224-135.232A51.712 51.712 0 0 1 64 199.04v-115.52c0-28.48 20.992-51.52 46.848-51.52H640v35.2c0 19.392 14.4 35.2 32 35.2s32-15.808 32-35.2v-35.2h209.152c25.856 0 46.848 23.04 46.848 51.52V199.04a51.712 51.712 0 0 1-35.776 49.728C871.04 265.792 832 319.872 832 384s38.976 118.208 92.224 135.232zM704 245.312c0-17.6-14.4-32-32-32s-32 14.4-32 32v64c0 17.6 14.4 32 32 32s32-14.4 32-32v-64z m0 213.376c0-17.6-14.4-32-32-32s-32 14.4-32 32v64c0 17.6 14.4 32 32 32s32-14.4 32-32v-64z"  horiz-adv-x="1024" />

    
    <glyph glyph-name="guanyu" unicode="&#58988;" d="M925.568 452.928h-41.344a49.92 49.92 0 0 0-44.736 32.96l-23.68 57.664a49.472 49.472 0 0 0 8 54.784l29.376 29.248a34.56 34.56 0 0 1 0 48.832l-48.768 48.704a34.624 34.624 0 0 1-48.832 0l-29.312-29.312a49.408 49.408 0 0 0-54.784-8.064l-57.6 23.68a49.92 49.92 0 0 0-32.96 44.736v41.344a34.624 34.624 0 0 1-34.432 34.56H477.568a34.624 34.624 0 0 1-34.496-34.56v-41.344c0-18.944-14.784-39.04-32.896-44.672l-57.728-23.744a49.28 49.28 0 0 0-54.656 8.064l-29.44 29.312a34.56 34.56 0 0 1-48.704 0l-48.768-48.704a34.56 34.56 0 0 1 0-48.768l29.248-29.312a49.28 49.28 0 0 0 8.128-54.784l-23.68-57.728a49.856 49.856 0 0 0-44.8-32.896H98.56A34.56 34.56 0 0 1 64 418.56v-68.928c0-18.944 15.552-34.56 34.496-34.56h41.344c19.008 0 39.04-14.784 44.608-32.896l23.808-57.664a49.472 49.472 0 0 0-8.128-54.784l-29.312-29.312a34.752 34.752 0 0 1 0-48.832l48.832-48.768c13.376-13.376 35.328-13.376 48.64 0l29.44 29.376a49.088 49.088 0 0 0 54.592 8l57.856-23.744a49.856 49.856 0 0 0 32.896-44.672v-41.28a34.56 34.56 0 0 1 34.56-34.432h68.864a34.56 34.56 0 0 1 34.432 34.432v41.28a49.92 49.92 0 0 0 32.96 44.672l57.728 23.68a49.344 49.344 0 0 0 54.784-7.936l29.184-29.376c13.44-13.376 35.392-13.376 48.832 0l48.768 48.768a34.56 34.56 0 0 1 0 48.832l-29.376 29.312a49.536 49.536 0 0 0-8.064 54.784l23.744 57.664a50.048 50.048 0 0 0 44.736 32.896h41.344A34.56 34.56 0 0 1 960 349.504V418.496a34.56 34.56 0 0 1-34.432 34.432m-241.152-68.864A172.288 172.288 0 1 0 339.84 384a172.288 172.288 0 0 0 344.576 0"  horiz-adv-x="1024" />

    
    <glyph glyph-name="jifen" unicode="&#58989;" d="M832 589.44h-148.544c16.704 9.6 32.384 20.736 45.44 33.216 59.456 56.512 70.208 138.048 23.936 182.016C733.504 823.104 707.2 832 678.848 832c-39.424 0-82.816-17.152-117.376-50.048A238.208 238.208 0 0 1 512 712.32a238.208 238.208 0 0 1-49.472 69.568C427.968 814.848 384.512 832 345.152 832c-28.416 0-54.656-8.96-74.048-27.328-46.144-43.968-35.392-125.44 24-182.016 13.056-12.48 28.736-23.616 45.44-33.216H192c-35.2 0-64-29.376-64-65.28v-228.736h352V560.832c11.712 3.2 22.144 8.448 30.4 16.32 0.64 0.512 1.024 1.28 1.6 1.792 0.576-0.576 1.024-1.28 1.6-1.792 8.32-7.872 18.688-13.056 30.4-16.32v-265.408H896V524.096c0 35.968-28.8 65.344-64 65.344zM605.952 733.184c21.184 20.096 48.448 32.128 72.896 32.128 7.296 0 20.8-1.216 29.44-9.472 1.984-1.856 7.936-7.488 7.936-21.568 0-15.68-8.32-40.448-31.808-62.848-28.8-27.328-76.16-48-110.272-48-9.856 0-14.528 1.856-15.36 1.856-6.336 13.12 7.424 70.08 47.168 107.904z m-298.24 1.152c0 14.08 6.016 19.712 8 21.504 8.64 8.32 22.144 9.472 29.44 9.472 24.448 0 51.712-12.032 72.896-32.128 40-38.08 53.76-95.616 48.128-107.008 0 0-4.352-2.752-16.32-2.752-34.112 0-81.472 20.672-110.208 48-23.552 22.4-31.872 47.168-31.872 62.912zM544-64H832c35.2 0 64 29.44 64 65.344v228.736H544V-64zM128 1.344C128-34.624 156.8-64 192-64h288v294.08H128v-228.736z"  horiz-adv-x="1024" />

    
    <glyph glyph-name="hanbao" unicode="&#58990;" d="M894.208 457.28v-10.304c91.072-52.288 86.4-188.928-6.4-235.776 4.48-10.048 6.4-21.376 6.4-33.152v-60.16c0-48-40-87.744-87.808-87.744H217.6c-48.128 0-88.064 39.68-88.064 87.808v60.16c0 11.712 2.432 23.04 6.4 33.088-92.032 46.848-97.408 182.528-6.4 235.52v10.56c0 374.144 764.672 374.144 764.672 0z m-487.424 160.64a21.12 21.12 0 0 0 20.8-20.8c0-11.328-9.6-20.672-20.8-20.672a20.416 20.416 0 0 0-20.416 20.672c0 11.264 8.832 20.864 20.416 20.864z m30.4-70.656a21.12 21.12 0 0 0 20.864-20.8c0-11.328-9.6-20.608-20.864-20.608a20.8 20.8 0 0 0-20.864 20.608c0 11.264 9.344 20.8 20.864 20.8z m192.64 1.728a20.48 20.48 0 0 0 21.056-20.608c0-11.52-9.344-20.608-21.12-20.608a20.608 20.608 0 1 0 0 41.216z m89.984 27.712c11.264 0 20.864-9.024 20.864-20.8 0-11.328-9.6-20.608-20.864-20.608a20.352 20.352 0 0 0-20.416 20.608c0 11.776 8.896 20.8 20.416 20.8zM607.36 631.488c11.264 0 20.864-8.896 20.864-20.672 0-11.52-9.6-20.864-20.864-20.864a20.672 20.672 0 0 0-20.864 20.864c0 11.776 9.088 20.672 20.864 20.672z m-95.872-8.64a20.672 20.672 0 1 0 0-41.472 20.928 20.928 0 0 0-20.864 20.608c0 11.52 9.536 20.864 20.864 20.864z m-203.904-36.544c11.264 0 20.8-9.344 20.8-20.864a21.12 21.12 0 0 0-20.8-20.864 20.864 20.864 0 1 0 0 41.728z m539.968-193.856H176.384c-67.2-22.016-52.992-126.272 19.84-126.272h631.296c72.576 0 87.808 104 20.096 126.272zM199.04 464.896h625.792c-11.264 272-614.528 272-625.792 0z m607.36-268.16H217.6a18.496 18.496 0 0 1-18.56-18.688v-60.16c0-9.984 8.064-18.56 18.56-18.56h588.8a18.816 18.816 0 0 1 18.688 18.56v60.16a18.816 18.816 0 0 1-18.624 18.624z"  horiz-adv-x="1024" />

    
    <glyph glyph-name="yue" unicode="&#58991;" d="M350.72 815.552l0.768 1.6s83.2 16.64 152.32 16.896c72.32 0.32 152.32-16.896 152.32-16.896l0.832-1.6c9.408-3.648 16.192-12.8 16.192-23.488 0-2.176-0.832-4.288-1.28-6.208l0.96-2.496-7.104-8.896-0.384-0.576-60.16-75.072H402.112l-60.16 74.944c-0.384 0.448-0.64 1.024-1.152 1.472l-6.4 8.128 1.152 2.368c-0.576 2.048-1.28 4.096-1.28 6.272a25.472 25.472 0 0 0 16.384 23.552zM614.912 644.16H409.152C247.68 588.16 114.304 410.24 114.304 239.744c0-205.696 117.504-305.792 397.696-305.792 280.32 0 397.632 100.032 397.696 305.792 0 170.496-133.12 348.352-294.784 404.48z m7.68-397.568v-0.256c18.56 0 33.6-15.104 33.6-33.664a33.92 33.92 0 0 0-33.6-33.92H554.24v-33.92h-0.512a42.304 42.304 0 1 0-82.88 0h-0.64v33.92h-67.84a33.92 33.92 0 0 0 0 67.712h0.128v0.128h67.648v33.6H402.56V280.32h-0.128a33.792 33.792 0 1 0 0 67.584h0.128v0.128h61.696A18.56 18.56 0 0 0 467.2 353.92L391.168 429.76c-9.472 9.344-6.336 27.648 6.848 40.896 13.184 13.056 31.488 16.192 40.832 6.72l74.24-73.984 68.736 73.088c10.688 11.648 32.384 8.832 45.632-4.48 13.12-13.44 19.904-25.472 6.848-40.128L554.24 350.08c0-0.768 0.128-1.344 0-2.176h68.288v-0.128a33.792 33.792 0 1 0 0-67.584H554.24v-33.664h68.352z"  horiz-adv-x="1024" />

    
    <glyph glyph-name="xunlianjilu" unicode="&#58992;" d="M589.101176 221.906824l-92.461176-73.788236a26.985412 26.985412 0 0 0-40.297412 7.890824L360.508235 327.740235l-56.922353-85.052235a26.864941 26.864941 0 0 0-21.865411-11.926588l-33.189647-0.602353 235.038117-343.401412A35.056941 35.056941 0 0 1 512-128a35.056941 35.056941 0 0 1 28.491294 14.757647l229.376 335.149177h-180.705882zM698.608941 715.173647a218.895059 218.895059 0 0 1-186.548706-104.990118A218.895059 218.895059 0 0 1 325.270588 715.294118C205.643294 715.294118 108.303059 619.038118 108.303059 500.675765a213.052235 213.052235 0 0 1 40.116706-124.325647l63.728941-93.06353 54.512941 1.024L340.208941 394.24a26.864941 26.864941 0 0 0 45.899294-1.867294L487.905882 209.92l75.053177 59.873882a26.925176 26.925176 0 0 0 16.805647 5.842824h226.906353l67.343059 98.364235a210.582588 210.582588 0 0 1 41.682823 126.494118c0 118.302118-97.400471 214.618353-217.088 214.618353z"  horiz-adv-x="1024" />

    
    <glyph glyph-name="mifan" unicode="&#58993;" d="M960 485.056a27.2 27.2 0 0 1-27.2 27.2h-31.872a137.92 137.92 0 0 1-113.152 125.44 138.368 138.368 0 0 1-135.744 113.024c-0.576 0-0.96-0.256-1.472-0.256-27.648 37.952-79.488 63.616-138.88 63.616-53.76 0-103.552-20.864-133.248-55.808-2.048-2.432-3.584-5.12-5.44-7.616a138.304 138.304 0 0 1-135.168-113.024 137.984 137.984 0 0 1-112.64-125.44h-33.984A27.2 27.2 0 0 1 64 485.12c0-84.544 21.12-322.944 246.336-412.608-0.32-1.728-1.024-3.328-1.024-5.12v-86.208a27.2 27.2 0 0 1 27.2-27.2h350.976a27.2 27.2 0 0 1 27.2 27.2V67.2a26.752 26.752 0 0 1-1.856 9.088C882.176 150.08 960 318.144 960 485.056zM260.736 585.536c0.64 0 1.152-0.32 1.792-0.32a27.2 27.2 0 0 1 27.2 27.2c0 38.784 26.56 71.168 62.336 80.768-0.064-1.728-0.448-3.392-0.448-5.12a27.2 27.2 0 0 1 54.4 0c0 15.36 7.616 27.52 13.952 35.008 19.2 22.592 54.272 36.608 91.648 36.608 57.28 0 105.664-32.768 105.664-71.616a27.2 27.2 0 1 1 54.4 0c0 1.92-0.256 3.84-0.384 5.76 36.992-8.704 64.64-41.792 64.64-81.408a27.2 27.2 0 0 1 27.2-27.2c0.64 0 1.28 0.32 1.92 0.384a83.648 83.648 0 0 0 81.472-73.344H179.648A83.648 83.648 0 0 0 260.672 585.6z m399.552-577.28H363.712v46.912A591.232 591.232 0 0 1 512 37.632a529.92 529.92 0 0 1 148.288 20.16v-49.472zM512 92.096c-330.24 0-386.56 237.44-392.96 365.824h785.792c-9.92-174.592-116.736-365.824-392.832-365.824z m0 0"  horiz-adv-x="1024" />

    
    <glyph glyph-name="yinliao" unicode="&#58994;" d="M254.08 638.528h516.288v56.96h-55.04a33.6 33.6 0 0 0-33.344 33.664v35.968H341.76v-35.968c0-18.56-14.72-33.664-33.472-33.664H254.08v-56.96z m171.648 56.96a20.16 20.16 0 0 0 0 40.32h172.352a20.16 20.16 0 0 0 0-40.32H425.728z m269.952-506.816H625.984a150.848 150.848 0 0 0-46.656-36.928 153.6 153.6 0 0 0-134.848 0 154.752 154.752 0 0 0-46.976 36.928H328.064l17.088-167.808a17.856 17.856 0 0 1 6.656-12.608c3.264-3.52 8.256-5.12 13.44-5.12h293.76a16.832 16.832 0 0 1 12.992 5.12l0.256-0.192a18.56 18.56 0 0 1 6.4 12.8l17.024 167.808zM307.904 386.368h89.6c13.312 15.168 28.928 27.52 46.976 36.48a148.16 148.16 0 0 0 67.264 16.128 147.2 147.2 0 0 0 67.584-16.128c17.792-8.96 34.112-21.312 46.72-36.48h89.792l18.752 185.344h-445.44l18.752-185.344z m403.904-40.32H616.768a20.224 20.224 0 0 0-16.128 8.32 115.968 115.968 0 0 1-38.848 32.96 114.176 114.176 0 0 1-99.328 0 123.712 123.712 0 0 1-38.656-32 20.032 20.032 0 0 0-16.576-9.28H311.936l12.16-117.568h83.2c6.144 0 11.776-2.816 16.064-8 9.984-13.568 23.68-24.96 39.04-32.32 14.72-8 31.552-11.84 49.344-11.84 18.048 0 34.88 3.84 50.048 11.84 15.168 7.424 28.416 18.304 38.4 31.552a20.224 20.224 0 0 0 16.576 8.768h82.944l12.16 117.568z m89.856 225.664l-56.64-557.248a85.632 85.632 0 0 0-28.16-55.68h-0.32l0.256-0.512c-15.36-13.44-36.032-22.272-57.856-22.272H365.248c-22.272 0-42.88 8.768-58.24 22.272a87.552 87.552 0 0 0-28.032 56.192L222.08 571.712h-1.6a33.536 33.536 0 0 0-33.472 33.408V697.856A64.128 64.128 0 0 0 251.264 762.24h24.192v14.72c0 14.912 5.632 28.928 15.872 38.848v-0.256A53.568 53.568 0 0 0 329.984 832h363.84c14.912 0 28.672-6.144 38.656-16.128l0.448-0.256c9.984-9.92 16.128-23.68 16.128-38.592v-14.72h23.68c17.28 0 33.664-7.104 45.504-18.944 11.392-11.392 18.752-27.968 18.752-45.504V605.12a33.6 33.6 0 0 0-33.664-33.408h-1.664z"  horiz-adv-x="1024" />

    
    <glyph glyph-name="guanbi" unicode="&#58996;" d="M512 793.6c225.856 0 409.6-183.744 409.6-409.6s-183.744-409.6-409.6-409.6S102.4 158.144 102.4 384 286.144 793.6 512 793.6M512 832a448 448 0 1 1 0-896A448 448 0 0 1 512 832zM656.832 501.632l-262.464-262.4a19.2 19.2 0 1 0-27.136 27.136l262.4 262.4a19.2 19.2 0 0 0 27.136-27.136zM629.632 239.168l-262.4 262.464a19.2 19.2 0 0 0 27.136 27.136l262.4-262.4a19.2 19.2 0 0 0-27.136-27.136z"  horiz-adv-x="1024" />

    
    <glyph glyph-name="wode2" unicode="&#58997;" d="M877.632 250.304a1324.16 1324.16 0 0 1-156.672 55.488A1070.72 1070.72 0 0 1 632.96 327.04a200.768 200.768 0 0 1 72.128 153.472V629.76a202.56 202.56 0 0 1-405.12 0v-149.12c0-63.488 29.952-119.552 75.968-156.736-30.848-6.464-60.736-14.336-88.256-22.592-47.616-14.208-94.4-31.04-140.16-50.496-35.392-14.208-62.08-54.016-62.08-92.608v-159.552l2.048-6.016c11.52-33.92 42.56-56.64 77.312-56.64h694.4a79.36 79.36 0 0 1 78.72 69.056l0.64 153.152c0 38.272-26.624 78.08-60.928 92.16z"  horiz-adv-x="1024" />

    
    <glyph glyph-name="qiandao2" unicode="&#58998;" d="M680.896 412.032l-192.192-233.344a33.664 33.664 0 0 0-25.92-12.672h-0.192a33.664 33.664 0 0 0-25.92 12.992L342.848 295.744a41.984 41.984 0 0 0 2.816 54.912 32.64 32.64 0 0 0 49.472-3.136l67.968-84.608 166.08 201.6a32.64 32.64 0 0 0 49.536 0.768 42.112 42.112 0 0 0 2.176-53.248m146.176 379.584H757.12V675.328c0.128-43.008-31.104-78.016-69.888-78.208H336.768c-38.784 0.192-70.016 35.2-69.952 78.208V752.32l-0.128 39.296H196.48c-38.464-0.064-69.696-34.688-69.76-77.44V13.44c0-42.752 31.36-77.504 69.76-77.504h631.04c38.528 0.064 69.696 34.688 69.76 77.44V714.176c0 42.688-31.552 77.44-70.208 77.44M683.392 805.952a46.016 46.016 0 0 1-40.32 26.048H384.96c-17.28 0-32.256-10.496-40.32-26.048a56.896 56.896 0 0 1-6.656-26.368v-51.648c0-28.992 21.056-52.48 46.976-52.48h258.24c25.856 0 46.848 23.488 46.848 52.48V779.52a56.32 56.32 0 0 1-6.592 26.368"  horiz-adv-x="1024" />

    
    <glyph glyph-name="jiaolian2" unicode="&#58999;" d="M985.184 548.928c-8.832 16.128-28.096 45.184-46.72 73.216-14.08 21.12-33.28 50.176-36.032 56.32-7.168 16.512-29.312 31.872-59.84 51.776a359.168 359.168 0 0 0-14.272 9.472c-15.488 11.072-32.704 23.488-54.144 20.48-36.352-5.504-74.944-42.496-72.32-86.848 1.088-18.752 11.584-36.736 29.696-50.688 20.736-16 47.552-24.192 69.952-19.84l17.408 3.456c9.088-14.976 20.736-31.808 21.12-55.488 0.64-34.688 1.6-58.88 3.264-76.352-15.36 3.904-34.88 6.208-52.736-0.128a88.064 88.064 0 0 1-33.856-19.84l-15.552 10.368c-22.4 14.72-45.312 29.952-66.496 29.056-18.944-0.832-31.424-1.92-41.28-4.928a229.76 229.76 0 0 0-34.304 34.56 9.408 9.408 0 0 0 0.896 1.088c27.264 38.528 52.48 78.208 52.48 107.392 0 38.272-10.048 163.136-140.224 163.136s-140.288-124.8-140.288-163.136c0-29.184 25.28-68.864 52.544-107.392l0.896-1.152a230.592 230.592 0 0 0-34.304-34.56c-9.92 3.008-22.4 4.16-41.28 4.992-21.76 1.152-44.096-14.336-66.496-29.056l-15.104-10.112a0.64 0.64 0 0 0-0.832 0.064 88.32 88.32 0 0 1-33.344 19.52c-17.92 6.208-36.928 4.16-52.736 0 1.6 17.28 2.496 41.6 3.2 76.608 0.384 21.824 10.304 37.952 20.032 54.464 2.624 0.704 11.84-1.216 21.696-3.2 20.928-4.032 45.888 7.808 62.08 20.352 20.928 16.256 33.152 36.48 34.304 56.96 2.56 43.264-34.752 75.008-72.32 80.64-20.928 3.2-38.656-9.344-54.144-20.48-4.672-3.2-9.408-6.4-14.208-9.408-30.592-19.84-52.736-35.2-59.904-51.84-2.624-6.08-21.888-35.008-35.968-56.064-18.624-28.16-37.888-57.216-46.784-73.408-12.544-23.104-51.584-171.648-35.008-197.504 6.656-10.24 24.96-23.232 115.584-72.768l14.592-8c20.864-11.52 49.472-16.32 85.12-14.464 6.592-5.952 21.76-24.768 57.152-81.92l10.688-16.64c6.336-9.344 8.96-13.44 9.28-20.224 0.704-10.432 2.496-77.12 3.648-122.624 0.64-23.68 20.224-42.368 43.904-41.792l335.936-0.128a42.944 42.944 0 0 1 43.968 41.856c1.152 45.44 2.88 112.256 3.584 122.752 0.448 6.784 3.008 10.816 9.344 20.096l10.56 16.384c35.328 57.408 50.624 76.224 57.216 82.176 35.584-1.856 64.32 2.944 85.312 14.528l14.336 7.936c90.752 49.6 108.992 62.528 115.648 72.896 16.64 25.792-22.4 174.336-34.944 197.44z"  horiz-adv-x="1024" />

    
    <glyph glyph-name="kebiao2" unicode="&#59000;" d="M825.984 779.264h-139.456v17.6A35.008 35.008 0 0 1 651.648 832a35.008 35.008 0 0 1-34.944-35.136v-17.6H407.296v17.6c0 19.392-15.68 35.136-34.944 35.136s-34.88-15.744-34.88-35.136v-17.6H197.504C159.168 779.264 128 746.304 128 705.792v-102.208h768V705.792c0 40.512-31.36 73.472-70.016 73.472m-174.336-386.496c19.264 0 34.88-15.744 34.88-35.136a35.008 35.008 0 0 0-34.88-35.136H372.352a35.008 35.008 0 0 0-34.88 35.2c0 19.328 15.616 35.072 34.88 35.072h279.296z m-314.24-210.816c0 19.392 15.68 35.2 34.944 35.2h279.296c19.264 0 34.88-15.808 34.88-35.2a35.008 35.008 0 0 0-34.88-35.136H372.352a35.008 35.008 0 0 0-34.88 35.2z m523.712 351.36H128v-523.904C128-31.04 159.232-64 197.568-64h628.864c38.4 0 69.568 32.96 69.568 73.408V533.312h-34.88z"  horiz-adv-x="1024" />

    
    <glyph glyph-name="arrow-right-copy" unicode="&#59045;" d="M959.488 386.56a29.376 29.376 0 0 1-8.256 23.68l-168.96 168.96a29.888 29.888 0 1 1-42.24-42.24l123.136-123.072L93.888 413.888a29.888 29.888 0 1 1 0-59.776l769.28 0-123.136-123.072a29.888 29.888 0 0 1 42.24-42.24l168.96 168.96a29.376 29.376 0 0 1 8.31999999 23.68c0 0.89600001 0.448 1.664 0.44800001 2.56 0 0.89600001-0.448 1.664-0.512 2.56z"  horiz-adv-x="1024" />

    
    <glyph glyph-name="arrow-down-copy" unicode="&#59046;" d="M514.56-63.488000000000056a29.376 29.376 0 0 1 23.68 8.256l168.96 168.96a29.888 29.888 0 1 1-42.24 42.24l-123.072-123.136L541.888 802.112a29.888 29.888 0 1 1-59.776 0l0-769.28-123.072 123.136a29.888 29.888 0 0 1-42.24-42.24l168.96-168.96a29.376 29.376 0 0 1 23.68-8.31999999c0.89600001 0 1.664-0.448 2.56-0.44800001 0.89600001 0 1.664 0.448 2.56 0.512z"  horiz-adv-x="1024" />

    
    <glyph glyph-name="ciqia" unicode="&#59062;" d="M512-64A448 448 0 1 0 512 832a448 448 0 0 0 0-896z m-87.936 211.2a21.632 21.632 0 0 1 29.12-9.792l156.288 78.784-198.912-41.728 13.504-27.328z m-85.056 67.072a21.696 21.696 0 0 1 25.152-17.664l243.968 43.776H334.4l4.608-26.112z m369.92 378.816H314.88a22.208 22.208 0 0 1-21.888-22.592v-50.752h437.76l0.128 50.752a22.208 22.208 0 0 1-21.888 22.592z m21.888-224.832V460.928H292.992v-168.832c0-12.416 9.792-22.528 21.888-22.528h226.56c-0.128 2.56 157.632 0.128 160.192 0.192 22.4 0.832 29.504 16.768 29.184 29.44-0.64 24.32 0.64 33.92 0 69.12z m-38.208-10.24h-54.976c-4.928 0-8.96 6.464-8.96 14.528v0.32c0 8 4.032 14.528 8.96 14.528h54.976c4.992 0 8.96-6.528 8.96-14.528v-0.32c0-8.064-3.968-14.528-8.96-14.528z m-102.144 0h-54.976c-4.992 0-8.96 6.464-8.96 14.528v0.32c0 8 3.968 14.528 8.96 14.528h54.976c4.928 0 8.96-6.528 8.96-14.528v-0.32c0-8.064-4.032-14.528-8.96-14.528z m-102.208 0h-54.912c-4.992 0-8.96 6.464-8.96 14.528v0.32c0 8 3.968 14.528 8.96 14.528h54.912c4.992 0 9.024-6.528 9.024-14.528v-0.32c0-8.064-4.032-14.528-8.96-14.528z m-102.144 0h-54.912c-4.992 0-9.024 6.464-9.024 14.528v0.32c0 8 4.032 14.528 8.96 14.528h54.976c4.992 0 9.024-6.528 9.024-14.528v-0.32c0-8.064-4.032-14.528-9.024-14.528z"  horiz-adv-x="1024" />

    
    <glyph glyph-name="yueqia" unicode="&#59063;" d="M180.672 642.816l12.608-63.104 580.608 176.704c-6.272 12.608-6.272 31.552-12.608 37.888-18.944 50.496-88.32 37.824-88.32 31.552-6.336 0-422.848-119.936-467.008-138.88-37.888-6.272-25.28-37.824-25.28-44.16z m549.056-492.224v132.48c0 44.16 31.552 75.776 75.712 75.776h119.936V434.56c0 25.216-25.28 50.496-50.56 50.496H142.848c-25.216 0-50.496-25.216-50.496-50.496v-448.064c0-25.216 25.28-50.496 50.56-50.496h738.304c25.28 0 50.56 25.216 50.56 50.496v88.32h-119.936c-44.16 0-82.048 31.552-82.048 75.776z m56.768 296.576h31.616c6.272 0 12.608-6.272 12.608-12.608a13.568 13.568 0 0 0-12.608-12.608h-31.616a13.568 13.568 0 0 0-12.608 12.608c0 6.336 6.336 12.608 12.608 12.608z m-567.936-473.28h-31.552a13.568 13.568 0 0 0-12.608 12.608c0 6.272 6.272 12.608 12.608 12.608h31.552c6.272 0 12.608-6.336 12.608-12.608a13.568 13.568 0 0 0-12.608-12.608z m0 448h-31.552a13.568 13.568 0 0 0-12.608 12.672c0 6.336 6.272 12.608 12.608 12.608h31.552c6.272 0 12.608-6.272 12.608-12.608a13.568 13.568 0 0 0-12.608-12.608z m126.208-448h-50.496a13.568 13.568 0 0 0-12.608 12.608c0 6.272 6.272 12.608 12.608 12.608h50.496c6.336 0 12.608-6.336 12.608-12.608a13.568 13.568 0 0 0-12.608-12.608z m0 448h-50.496a13.568 13.568 0 0 0-12.608 12.672c0 6.336 6.272 12.608 12.608 12.608h50.496c6.336 0 12.608-6.272 12.608-12.608a13.568 13.568 0 0 0-12.608-12.608z m126.208-448H420.48a13.568 13.568 0 0 0-12.608 12.608c0 6.272 6.336 12.608 12.608 12.608h50.56c6.272 0 12.544-6.336 12.544-12.608a13.568 13.568 0 0 0-12.608-12.608z m0 448H420.48a13.568 13.568 0 0 0-12.608 12.672c0 6.336 6.336 12.608 12.608 12.608h50.56c6.272 0 12.544-6.272 12.544-12.608-6.272-6.336-6.272-12.608-12.608-12.608z m119.936-448h-50.56a13.568 13.568 0 0 0-12.544 12.608c0 6.272 6.272 12.608 12.608 12.608h50.496c6.272 0 12.608-6.336 12.608-12.608a13.568 13.568 0 0 0-12.608-12.608z m0 448h-50.56a13.568 13.568 0 0 0-12.544 12.672c0 6.336 6.272 12.608 12.608 12.608h50.496c6.272 0 12.608-6.272 12.608-12.608a13.568 13.568 0 0 0-12.608-12.608z m126.208-448h-56.832a13.568 13.568 0 0 0-12.608 12.608c0 6.272 6.336 12.608 12.608 12.608h50.56c6.272 0 12.608-6.336 12.608-12.608 0-6.336 0-12.608-6.4-12.608z m0 448h-56.832a13.568 13.568 0 0 0-12.608 12.672c0 6.336 6.336 12.608 12.608 12.608h50.56c6.272 0 12.608-6.272 12.608-12.608s0-12.608-6.4-12.608z m107.264-435.392a13.568 13.568 0 0 0-12.608-12.608h-25.216a13.568 13.568 0 0 0-12.672 12.608c0 6.336 6.336 12.608 12.672 12.608h31.552c6.272 0 6.272-6.272 6.272-12.608z m56.832 536.384c18.88 0 37.824-6.272 50.496-12.608v25.28c0 25.216-25.28 50.432-50.56 50.432h-31.488c6.272-25.216 12.608-44.16 12.608-56.768h18.944v-6.336z m-668.992 0h631.04c-12.544 44.16-37.76 145.152-56.704 214.592l-580.608-176.64 6.272-37.952z m-25.216 0l-12.608 56.832h-31.552c-25.28 0-50.56-25.28-50.56-50.56v-25.152c12.672 12.608 31.616 12.608 50.56 12.608h44.16V522.88z"  horiz-adv-x="1024" />

    
    <glyph glyph-name="xiaofeijilu" unicode="&#59064;" d="M825.6 816.64H198.4A70.4 70.4 0 0 1 128 746.24v-724.48a70.4 70.4 0 0 1 70.4-70.4h407.872v238.08c0 28.544 23.104 51.712 51.712 51.712H896V746.24a70.4 70.4 0 0 1-70.4 70.4z m-338.432-575.488H342.272a23.808 23.808 0 1 0 0 47.68h144.896a23.808 23.808 0 1 0 0-47.68z m194.56 144.96H342.272a23.808 23.808 0 1 0 0 47.68h339.52a23.808 23.808 0 1 0-0.064-47.68z m0 142.848H342.272a23.808 23.808 0 1 0 0 47.68h339.52a23.808 23.808 0 1 0-0.064-47.68z m-25.856-358.144v-215.296l236.032 236.032h-215.296a20.672 20.672 0 0 1-20.736-20.736z"  horiz-adv-x="1024" />

    
    <glyph glyph-name="gongzuotai" unicode="&#59067;" d="M398.912 832H134.4A70.4 70.4 0 0 1 64 761.6v-264.512a70.4 70.4 0 0 1 70.4-70.4h264.512a70.4 70.4 0 0 1 70.4 70.4V761.6a70.4 70.4 0 0 1-70.4 70.4zM889.6 832H625.088a70.4 70.4 0 0 1-70.4-70.4v-264.512a70.4 70.4 0 0 1 70.4-70.4H889.6a70.4 70.4 0 0 1 70.4 70.4V761.6A70.4 70.4 0 0 1 889.6 832zM398.912 341.312H134.4a70.4 70.4 0 0 1-70.4-70.4V6.4A70.4 70.4 0 0 1 134.4-64h264.512a70.4 70.4 0 0 1 70.4 70.4V270.912a70.4 70.4 0 0 1-70.4 70.4zM889.6 341.312H625.088a70.4 70.4 0 0 1-70.4-70.4V6.4a70.4 70.4 0 0 1 70.4-70.4H889.6a70.4 70.4 0 0 1 70.4 70.4V270.912a70.4 70.4 0 0 1-70.4 70.4z"  horiz-adv-x="1024" />

    
    <glyph glyph-name="shibai" unicode="&#59068;" d="M874.239454 746.240094C674.559578 945.919969 349.439782 945.919969 149.759906 746.240094c-199.679875-199.743875-199.679875-524.735672 0-724.479548A510.591681 510.591681 0 0 1 511.99968-127.99936c131.199918 0 262.399836 49.919969 362.239774 149.759906 199.679875 199.743875 199.679875 524.735672 0 724.479548z m-193.727879-478.975701a48.831969 48.831969 0 1 0-69.119957-69.119957l-103.679935 103.679935-103.679936-103.679935a48.70397 48.70397 0 0 0-69.119956 0 48.831969 48.831969 0 0 0 0 69.119957l103.679935 103.679935-103.679935 103.679935a48.831969 48.831969 0 1 0 69.119956 69.119957l103.679936-103.679935 112.319929 112.38393a48.831969 48.831969 0 1 0 69.119957-69.119957L576.831639 371.008328l103.679936-103.679935z"  horiz-adv-x="1024" />

    
    <glyph glyph-name="chenggong" unicode="&#59069;" d="M512 896C229.696 896 0 666.304 0 384s229.696-512 512-512 512 229.696 512 512-229.696 512-512 512z m232.128-423.168L484.992 228.48a48.64 48.64 0 0 0-68.48 1.408L284.8 365.056A48.832 48.832 0 1 0 354.752 433.28l98.176-100.736 224.192 211.328a48.832 48.832 0 1 0 67.008-71.04z"  horiz-adv-x="1024" />

    
    <glyph glyph-name="xiezi" unicode="&#59070;" d="M965.453919 671.639443a525.597222 525.597222 0 0 1-45.409349 62.038125c-37.286831 43.874385-84.167187 76.748195-131.1115 108.854523a605.223474 605.223474 0 0 1-81.481 48.415319c-31.46676 14.837984-54.235391-4.476978-49.758413-38.693881a313.388463 313.388463 0 0 0 2.8141-42.978989c-0.447698-50.589852-18.227696-91.905963-65.55575-116.145602-47.20014-24.175681-93.249057-22.065106-138.146751 6.523597-8.314388 5.308417-16.628776 10.68079-25.582731 14.71007-29.228271 13.239064-54.171434 4.349064-67.602369-24.879206-8.634172-18.867265-15.221725-38.629925-22.768631-57.944887-42.467335-108.72661-84.806755-217.453219-127.657831-325.924002a104.121718 104.121718 0 0 0-16.820646-27.62935c-24.943163-30.05971-52.316686-58.328628-75.788842-89.539561-32.617983-43.426687-57.561146-91.202438-67.154671-145.565743-9.913309-55.834312 2.302446-103.226322 48.031579-141.152722 42.019637-34.856472 56.154096-38.310141 104.121718-10.616833 63.445175 36.647263 118.959702 83.847403 171.532215 134.309341 59.735678 57.241362 117.360781 116.721213 175.88128 175.241712a55.834312 55.834312 0 0 0 0.831439-0.703526c65.619707 68.241937 131.367327 136.35596 196.795164 204.725811 69.58503 72.654958 138.97819 145.565743 208.371349 218.348614 17.076473 17.907912 19.57079 27.62935 6.45964 48.60719z m-164.305094 118.703875l96.127114-83.91136-119.919055-134.181427c-3.83741 12.983236-8.122517 22.512804-9.209783 32.362155-6.971294 63.317261 12.087841 122.093587 33.001724 185.730632zM457.188997 654.243186c65.811577-27.245609 127.210133-20.658056 183.108402 23.344242 57.68906 45.345392 62.229995 108.72661 56.921578 179.398906 29.548055-19.378919 56.28201-36.647263 82.632223-54.555175 1.918705-1.279137 2.238489-7.035251 1.343094-10.233093-9.593524-35.30417-19.314962-70.608339-29.484098-105.720638a22.256977 22.256977 0 0 0-7.418993-10.29705 590.705274 590.705274 0 0 0-198.202213-104.697329c-25.710645-7.802733-41.891723-28.396832-55.898269-49.054888a3415.038849 3415.038849 0 0 1-97.470207-152.345167c-14.454243-23.919854-32.617983-36.007695-62.038125-34.536688 33.321508 110.005746 77.323806 214.511205 126.506608 318.69688z m275.845805-37.094961a596.269518 596.269518 0 0 0-172.683439-90.498913c-19.57079-6.395683-37.9264-25.774602-50.334025-43.682515-35.687911-51.613161-69.009419-104.8892-101.24366-158.74085-11.448272-19.187049-25.774602-28.972444-46.880356-30.763234-15.669423-1.343093-31.402803-2.302446-47.519924-3.453669 3.83741 23.280286 4.668849 24.111725 24.81525 25.326904 29.0364 1.790791 51.101506 13.047193 66.770929 39.461364 29.548055 49.758413 61.398556 98.173733 92.609489 146.84488a127.913658 127.913658 0 0 0 23.216329 28.844529c11.320359 9.593524 24.111725 19.378919 37.9264 23.983811a624.730307 624.730307 0 0 1 179.590776 93.1851c1.534964 1.151223 3.197841 2.110575 6.523596 4.285108 3.069928-15.797337-1.023309-26.094386-12.791365-34.856472zM335.479152 271.397607c7.674819-1.151223 15.73338 1.087266 23.664026 1.59892 30.315537 2.174532 52.060859 15.797337 67.858196 43.042946 28.524746 49.118845 59.479851 96.830639 89.923302 144.798262 6.587553 10.424963 14.006546 20.913883 23.152372 28.844529 10.169136 8.762086 21.937192 17.396258 34.472731 21.169711 63.381218 19.314962 119.279486 51.932945 171.724086 92.097834l16.436905-44.641867c-9.08187-10.361006-19.059135-22.512804-29.867839-33.961076-57.433233-60.886901-114.674595-122.02963-172.811352-182.276963-49.502586-51.293377-99.64474-102.075099-150.554376-152.025383-29.675969-29.100357-61.590426-55.962225-92.097834-84.167187-8.314388-7.674819-15.989207-7.674819-23.216329-0.319784-23.280286 24.111725-46.048917 48.60719-69.073376 73.038699l55.258701 60.631074c2.046619 2.174532 4.732805 4.221151 5.756114 6.779423 8.953956 23.152372 26.478127 28.780573 49.374673 25.390862z m63.828915 402.672196c1.534964 3.453669 9.913309 5.692158 14.965898 5.372374 4.924676-0.255827 9.593524-4.668849 14.390287-7.035252 9.465611-4.476978 11.000575-10.48892 6.139855-20.082444-9.337697-18.419567-17.524171-37.414745-26.669998-57.241362l-35.943738 11.192445c9.145827 23.408199 17.396258 45.921003 27.117696 67.794239zM365.538861 587.536213l34.280861-10.552877-21.489495-51.22942-31.978414 9.401654 19.187048 52.4446z m-26.158343-70.99208l30.827192-9.465611-18.547481-47.967622-30.571364 9.465611c6.331726 16.628776 12.151798 31.65863 18.291653 47.967622z m-25.518775-66.834887l30.699278-9.145826c-5.884028-17.076473-11.320359-33.129637-17.14043-50.397982l-32.554026 10.041223c6.395683 16.436905 12.343668 32.042371 18.995178 49.502585zM287.51153 381.595223l33.961076-10.68079-18.995178-52.380643-36.135609 10.936617 21.105754 52.124816z m-29.164314-70.544382l36.455392-10.936618c-6.587553-12.023884-12.343668-23.280286-18.931221-34.08899-1.279137-2.110575-5.820071-3.965323-8.250431-3.325755-9.401654 2.366403-18.54748 5.756115-28.268919 8.953956l18.995179 39.397407z m-55.642442-82.056612c20.018488 26.542084 26.2223 27.885178 55.06683 14.070502l-45.153521-45.217478c-1.151223 12.343668-20.849926 16.500862-9.849352 31.146976z m-105.976466-263.310266c-9.849352 25.390861-8.953956 49.246758-4.413021 73.23057 10.041222 52.828341 36.839134 97.534164 68.433807 139.873585 6.971294 9.401654 14.710071 18.227696 22.832588 28.204962 32.68194-44.386039 61.654383-89.475604 107.51143-123.436681-61.334599-47.20014-118.448048-96.894596-194.42876-117.872436zM910.578959 627.765059c-43.042946-45.98496-86.469633-91.586179-130.216104-136.867615-124.076249-128.233442-247.704799-257.106453-372.996227-384.124716-62.93352-63.892872-129.448622-124.204162-205.301422-173.003222-2.110575-1.343093-4.221151-2.686187-6.395683-3.901367-41.380068-24.559422-54.171434-22.001149-85.31841 18.291653 7.546906 2.8141 14.710071 5.372374 21.745322 8.186474 46.944313 18.739351 87.94064 47.455967 127.657831 77.835461a1817.589127 1817.589127 0 0 1 201.719839 179.910561c97.917905 101.05179 195.388113 202.615235 291.962925 305.074075 50.334025 53.276039 98.23769 108.790566 147.292578 163.345741 1.598921 1.790791 3.389712 3.389712 5.884028 5.884029 28.908487-28.780573 29.548055-33.321508 3.965323-60.631074z"  horiz-adv-x="1024" />

    
    <glyph glyph-name="nan" unicode="&#59071;" d="M464 304m-192 0a192 192 0 1 1 384 0 192 192 0 1 1-384 0ZM512 896C230.4 896 0 665.6 0 384s230.4-512 512-512 512 230.4 512 512-230.4 512-512 512z m304-464a32 32 0 1 0-64 0V605.888l-109.44-118.976a254.976 254.976 0 0 0 77.44-182.912c0-141.184-114.816-256-256-256s-256 114.816-256 256 114.816 256 256 256c46.272 0 89.152-13.312 126.656-34.88L711.04 656H528a32 32 0 1 0 0 64h256c1.984 0 3.712-0.768 5.568-1.152 2.048-0.32 4.032-0.448 5.952-1.152 2.304-0.896 4.16-2.368 6.144-3.712 1.28-0.896 2.816-1.28 4.032-2.432 0.192-0.128 0.256-0.384 0.384-0.576 1.792-1.664 2.944-3.84 4.224-5.824 0.96-1.472 2.24-2.752 2.944-4.352 0.64-1.472 0.704-3.136 1.088-4.672 0.64-2.56 1.472-4.928 1.536-7.488l0.128-0.64v-256z"  horiz-adv-x="1024" />

    
    <glyph glyph-name="nv" unicode="&#59072;" d="M875.432137 747.432137C677.341654 945.522621 351.450858 945.522621 153.360374 747.432137c-198.090484-198.090484-198.090484-523.981279 0-722.071763 198.090484-198.090484 523.981279-198.090484 722.071763 0 198.090484 198.090484 198.090484 517.591264 0 722.071763z m-95.850234-466.471139c-51.120125-51.120125-115.020281-76.680187-185.310452-76.680187-57.51014 0-115.020281 19.170047-159.75039 57.510141l-38.340094-38.340094L492.031201 127.600624c12.780031-12.780031 12.780031-31.950078 0-44.730109-6.390016-6.390016-12.780031-6.390016-25.560062-6.390016-6.390016 0-19.170047 0-25.560063 6.390016l-95.850234 95.850234-70.290171-70.290172c-6.390016-6.390016-12.780031-6.390016-25.560063-6.390015s-19.170047 0-25.560062 6.390015c-12.780031 12.780031-12.780031 31.950078 0 44.730109l70.290172 70.290172L217.26053 319.301092c-12.780031 12.780031-12.780031 31.950078 0 44.730109s31.950078 12.780031 44.73011 0l95.850234-95.850234 38.340093 38.340094C313.110764 408.76131 319.50078 555.731669 415.351014 651.581903c102.24025 102.24025 268.380655 102.24025 364.230889 0 102.24025-102.24025 102.24025-268.380655 0-370.620905zM594.271451 664.361934c-51.120125 0-102.24025-19.170047-140.580343-57.51014C383.400936 530.171607 383.400936 402.371295 460.081123 332.081123c76.680187-76.680187 198.090484-76.680187 274.770671 0 76.680187 76.680187 76.680187 198.090484 0 274.770671-38.340094 38.340094-89.460218 57.51014-140.580343 57.51014z"  horiz-adv-x="1025" />

    
    <glyph glyph-name="jiaruwomen" unicode="&#59073;" d="M901.12 408.96h-72.96V604.16c0 53.76-44.16 97.28-97.28 97.28H535.68V774.4a121.6 121.6 0 1 1-243.2 0v-72.96H97.28C43.52 701.44 0 657.28 0 604.16v-185.6h72.96c72.96 0 131.84-58.88 131.84-131.84s-58.88-131.84-131.84-131.84H0v-185.6C0-84.48 44.16-128 97.28-128h185.6v72.96c0 72.96 58.88 131.84 131.84 131.84s131.84-58.88 131.84-131.84V-128h185.6c53.76 0 97.28 44.16 97.28 97.28v195.2h72.96a121.6 121.6 0 0 1 121.6 121.6c-1.28 68.48-55.68 122.88-122.88 122.88z"  horiz-adv-x="1024" />

    
    <glyph glyph-name="changjianwenyuda" unicode="&#59074;" d="M512 885.312C229.248 885.312 0 660.864 0 384s229.248-501.312 512-501.312S1024 107.136 1024 384C1024 660.928 794.752 885.312 512 885.312z m-6.912-795.264c-33.792 0-62.208 23.68-62.208 60.608s28.416 59.904 62.208 59.904 61.44-23.04 61.44-59.904-27.648-60.608-61.44-60.608z m29.952 189.568h-62.976C448.256 408.512 608 443.84 608 531.392c0 50.624-29.952 88.96-95.168 88.96-44.544 0-85.184-21.44-123.52-63.68l-41.472 38.4c46.784 49.088 98.24 82.88 172.672 82.88 95.168 0 155.776-54.464 155.776-140.48 0-117.44-161.92-141.952-141.184-257.92z"  horiz-adv-x="1024" />

    
    <glyph glyph-name="lianxiwomen" unicode="&#59075;" d="M512 896C229.248 896 0 671.552 0 394.688s229.248-501.376 512-501.376 512 224.448 512 501.376C1024 671.552 794.752 896 512 896z m219.264-665.216a28.8 28.8 0 0 1-9.856-29.056l20.096-83.584-123.328 48.256a30.4 30.4 0 0 1-18.048 1.28 374.848 374.848 0 0 0-85.184-9.92c-164.736 0-298.688 104.832-298.688 233.6s133.952 233.664 298.688 233.664 298.624-104.768 298.624-233.6c0-59.84-29.184-116.928-82.304-160.64zM320.896 391.424c0-24.192 19.968-43.776 44.672-43.776s44.8 19.584 44.8 43.776c0 24.192-20.096 43.84-44.8 43.84s-44.672-19.648-44.672-43.84zM470.208 391.424c0-24.192 20.032-43.776 44.8-43.776s44.672 19.584 44.672 43.776a44.288 44.288 0 0 1-44.736 43.84 44.288 44.288 0 0 1-44.736-43.84zM619.52 391.424c0-24.192 20.032-43.776 44.8-43.776a44.288 44.288 0 0 1 44.672 43.776 44.288 44.288 0 0 1-44.736 43.84 44.288 44.288 0 0 1-44.736-43.84z"  horiz-adv-x="1024" />

    
    <glyph glyph-name="fuwutiaokuan" unicode="&#59076;" d="M236.8 896C102.4 896 0 787.2 0 659.2s108.8-236.8 236.8-236.8h236.8V659.2c0 128-102.4 236.8-236.8 236.8M1024 659.2c0 128-102.4 236.8-236.8 236.8S550.4 787.2 550.4 659.2v-236.8h236.8c134.4 0 236.8 102.4 236.8 236.8M0 108.8c0-128 108.8-236.8 236.8-236.8s236.8 108.8 236.8 236.8V345.6H236.8C102.4 345.6 0 243.2 0 108.8m787.2 236.8H550.4v-236.8c0-128 108.8-236.8 236.8-236.8s236.8 108.8 236.8 236.8c0 134.4-102.4 236.8-236.8 236.8"  horiz-adv-x="1024" />

    
    <glyph glyph-name="shejiao" unicode="&#59077;" d="M1014.9152 356.096a236.608 236.608 0 0 1-25.792 59.264 249.856 249.856 0 0 1-40.064 49.6 234.624 234.624 0 0 1-46.912 34.944 391.04 391.04 0 0 1-196.16 327.552A383.488 383.488 0 0 1 511.4912 879.104 377.6 377.6 0 0 1 433.9232 871.104 404.352 404.352 0 0 1 361.2192 848.64a384.768 384.768 0 0 1-123.52-82.688 416.384 416.384 0 0 1-47.36-56.768A387.712 387.712 0 0 1 153.6032 643.84c-9.984-22.784-17.92-47.104-23.488-72.32a360.96 360.96 0 0 1-8.384-71.744A240.512 240.512 0 0 1 34.3712 414.336 235.712 235.712 0 0 1 0.0032 290.624c0-55.04 17.024-104.896 50.56-147.968 31.424-40.32 71.68-68.224 119.808-83.072l-49.088-157.632 9.6-13.056h52.096l9.536 6.848 17.472 52.48 46.72 156.48-9.6 12.928h-0.96l-3.584-0.896a162.688 162.688 0 0 0-120.128 50.56 167.296 167.296 0 0 0-50.24 121.536c0 27.52 6.272 53.504 18.56 77.248a177.28 177.28 0 0 0 37.568 49.28 383.744 383.744 0 0 1 78.848-171.712 385.152 385.152 0 0 1 156.608-117.248l-53.056-172.224-16.512-51.2 9.6-13.184h52.16l9.472 6.848 17.408 51.2L456.9632 161.92l-7.552 13.12c-72.96 14.72-134.592 51.712-183.232 110.08a308.096 308.096 0 0 0-73.152 202.24c0 57.728 14.336 111.744 42.56 160.576a314.688 314.688 0 0 0 116.224 116.224 314.688 314.688 0 0 0 159.744 42.56c34.752 0 68.8-5.376 101.184-16 32.384-10.56 61.824-25.856 87.68-45.504a351.36 351.36 0 0 0 68.48-68.992c19.392-25.856 34.752-55.424 45.632-87.808 10.88-32.32 16.448-66.368 16.448-101.12 0-75.904-24.64-144-73.216-202.24a314.752 314.752 0 0 0-184.128-110.08l-7.488-13.12 75.008-214.08 17.408-51.2 9.472-6.848h51.264l9.6 12.928-15.552 51.328-53.12 172.352a389.504 389.504 0 0 1 156.16 117.184 381.888 381.888 0 0 1 79.296 171.776c15.232-14.08 27.84-30.528 37.568-49.28 12.288-23.744 18.56-49.792 18.56-77.312 0-47.04-16.896-87.936-50.24-121.536a162.816 162.816 0 0 0-120.576-50.56l-2.24 0.896h-1.856l-9.6-12.864 46.72-156.8 17.472-52.16 9.472-6.848h52.16l9.6 12.992-49.088 157.696a238.336 238.336 0 0 1 119.68 83.008c33.6 43.072 50.624 92.864 50.688 147.968v0.128c0 22.208-3.072 44.16-9.088 65.408zM695.4912 470.912v0.832l-10.048 9.216h-52.16l-9.984-9.984c0-31.104-10.752-56.96-32.768-78.976a106.688 106.688 0 0 0-78.976-32.768c-9.984 0-19.84 1.408-29.184 4.16a110.848 110.848 0 0 0-77.376 77.76 108.48 108.48 0 0 0-4.224 29.76l-9.984 10.048H338.5632l-10.048-10.048c0-50.688 18.048-94.528 53.76-130.176 35.584-35.648 79.232-53.696 129.664-53.696 50.496 0 94.08 18.048 129.792 53.76 35.648 35.584 53.696 79.36 53.696 130.112z"  horiz-adv-x="1024" />

    


  </font>
</defs>
</svg>
